# xmcd
#
# Track frame offsets: 
#        150
#        13775
#        28019
#        41934
#        55889
#        68577
#        82209
#        92991
#        105952
#        119256
#        132214
#        145674
#        158547
#        170541
#        181273
#        194076
#        206229
#        218892
#        230551
#        242462
#
# Disc length: 3407 seconds
#
# Revision: 1
# Processed by: cddbd v1.5.2PL0 Copyright (c) Steve Scherf et al.
# Submitted via: ExactAudioCopy v0.95a5
#
DISCID=1d0d4d14
DTITLE=Bukka White - Shake 'em On Down
DYEAR=1900
DGENRE=
TTITLE0=The New Frisco Train
TTITLE1=The Panama Limited
TTITLE2=I am in The Heavenly Way
TTITLE3=Promise True And Grand
TTITLE4=Pinebluff Arkansas
TTITLE5=Shake ´em on Down
TTITLE6=Sic ´em Dogs On
TTITLE7=Po´ Boy
TTITLE8=Black Train
TTITLE9=Strange Place Blues
TTITLE10=Where Can i Change my Clothes
TTITLE11=Sleepy Man Blues
TTITLE12=Parchman Farm Blues
TTITLE13=Good Gin Blues
TTITLE14=High Fever Blues
TTITLE15=District Attorney Blues
TTITLE16=Fixin´ to Die Blues
TTITLE17=Aberdeen Mississippi Blues
TTITLE18=Bukka´s Jitterbug Swing
TTITLE19=Special Stream Line
EXTD=
EXTT0=
EXTT1=
EXTT2=
EXTT3=
EXTT4=
EXTT5=
EXTT6=
EXTT7=
EXTT8=
EXTT9=
EXTT10=
EXTT11=
EXTT12=
EXTT13=
EXTT14=
EXTT15=
EXTT16=
EXTT17=
EXTT18=
EXTT19=
PLAYORDER=
